<?xml version="1.0" encoding="utf-8"?>
<!-- Generator: Adobe Illustrator 23.0.4, SVG Export Plug-In . SVG Version: 6.00 Build 0)  -->
<svg version="1.1" id="Слой_1" xmlns="http://www.w3.org/2000/svg" xmlns:xlink="http://www.w3.org/1999/xlink" x="0px" y="0px"
	 viewBox="0 0 229.5 246" style="enable-background:new 0 0 229.5 246;" xml:space="preserve">
<style type="text/css">
	.st0{fill:#FFFFFF;}
	.st1{fill-rule:evenodd;clip-rule:evenodd;fill:#00A659;}
	.st2{fill-rule:evenodd;clip-rule:evenodd;fill:#DC2A1B;}
	.st3{fill-rule:evenodd;clip-rule:evenodd;fill:#0096CD;}
	.st4{fill-rule:evenodd;clip-rule:evenodd;fill:#27417A;}
	.st5{fill:#27417A;}
	.st6{clip-path:url(#SVGID_2_);}
</style>
<path class="st0" d="M116.2,221.6L116.2,221.6c-55,0.1-99.5-44.4-99.6-99.3v0C16.6,67.4,61,22.8,115.9,22.7l0.1,0
	c54.9-0.1,99.5,44.4,99.5,99.3v0C215.6,176.9,171.1,221.5,116.2,221.6z"/>
<path class="st1" d="M175.8,92.7c-22.1,10.9-32.6,19.5-39.3,29.3c-7,12.6,13,13.7,8.7,28.7c-1.9,11.6-35.1,25.1-49.1,29.4
	c22.1-10.9,32.6-19.5,39.3-29.3c7-12.6-13-13.7-8.7-28.7C128.6,110.6,161.8,97.1,175.8,92.7"/>
<path class="st2" d="M130.1,105.2c-0.4-6.2-9.1-8.3-21.3-3.9c-7.6,2.7-16.3,6.5-24.1,9.3c25.5-6.4,41-5.1,32.6,3.8
	c-12.8,13.6-6.7,18.1-1.4,22.9c8.2,7.6,4.3,12.7-2,19.5c-6.8,7.4-17,14.5-34.3,23c13.1-4.1,50.5-17,49.7-34.1
	c-0.4-8-8.8-10.8-10.5-17C116.2,119.7,130.7,115.1,130.1,105.2"/>
<path class="st3" d="M91.3,98.9c3.6,0.8,6.2-4.7,10.7-3.9c0.7,26.6-7.3,61.8-22.5,84.7C91.1,149.5,94.6,125.9,91.3,98.9"/>
<path class="st2" d="M89.8,79c2,5.6,6.3,10.9,4.5,17.2c-16.2-5.7,0.3-16.5-18.9-27.9c13.5,1.6,16.9,5.5,18.6,9.1
	c-0.5-7.4-6.5-8.2-7.4-8.8c11.8-1.5,24.3,13.8,14.3,23.8c1.3-2.9,1.7-8.8,0.6-10.7c0.2,2.9-1.1,10.2-3.7,11.6
	C98.1,86.7,90.8,82.2,89.8,79"/>
<path class="st4" d="M92,27.9c52.1-13.5,105.4,17.8,118.9,70c13.5,52.1-17.8,105.4-70,118.9C88.8,230.3,35.5,199,22,146.8
	S39.9,41.4,92,27.9z M92.6,30C41.6,43.2,11,95.2,24.2,146.2s65.2,81.6,116.2,68.4c51-13.2,81.6-65.2,68.4-116.2
	C195.5,47.4,143.5,16.8,92.6,30z M93.6,34.1c48.7-12.6,98.4,16.7,111,65.4c12.6,48.7-16.7,98.4-65.4,111
	c-48.7,12.6-98.4-16.7-111-65.4S44.9,46.7,93.6,34.1z M98.6,53.4c-38,9.8-60.9,48.7-51,86.7c9.8,38,48.7,60.9,86.7,51
	c38-9.8,60.9-48.7,51-86.7C175.5,66.4,136.7,43.6,98.6,53.4z M99.2,55.7c36.8-9.5,74.3,12.6,83.9,49.4c9.5,36.8-12.6,74.3-49.4,83.9
	c-36.8,9.5-74.3-12.6-83.9-49.4C40.3,102.7,62.4,65.2,99.2,55.7z M91.1,25.6c53.3-13.8,107.6,18.3,121.3,71.7s-18.2,108-71.5,121.7
	S33.4,200.8,19.6,147.3C5.8,94,37.8,39.5,91.1,25.6z"/>
<polygon class="st4" points="207.8,122.3 199.9,124.7 199.9,132.7 195.1,126.3 187.2,128.8 192.1,122.3 187.2,115.8 195.1,118.3 
	199.9,111.9 199.9,119.8 "/>
<polygon class="st4" points="202.1,153.8 193.9,153.4 191.1,160.9 188.8,153.1 180.5,152.7 187.4,148.4 185,140.6 191.5,145.7 
	198.3,141.3 195.6,148.8 "/>
<polygon class="st4" points="202.3,90.8 195.7,95.8 198.5,103.3 191.7,98.9 185.1,104 187.5,96.2 180.7,91.8 189,91.5 191.3,83.7 
	194.1,91.2 "/>
<polygon class="st4" points="25.2,122.3 33.1,124.7 33,132.7 37.9,126.3 45.8,128.8 40.9,122.3 45.8,115.8 37.9,118.3 33,111.9 
	33.1,119.8 "/>
<polygon class="st4" points="30.9,153.8 39.1,153.4 41.9,160.9 44.2,153.1 52.4,152.7 45.6,148.4 48,140.6 41.4,145.7 34.6,141.3 
	37.4,148.8 "/>
<polygon class="st4" points="30.7,90.8 37.2,95.8 34.5,103.3 41.3,98.9 47.8,104 45.4,96.2 52.2,91.8 44,91.5 41.6,83.7 38.9,91.2 
	"/>
<path class="st5" d="M172.7,124.3c0,0.3,0.1,0.7,0.2,1c0.2,0.3,0.4,0.6,0.7,0.8c0.3,0.2,0.7,0.3,1.1,0.3c0.6,0,1.1-0.2,1.4-0.6
	c0.4-0.4,0.6-0.9,0.6-1.4c0-0.6-0.2-1.1-0.6-1.5c-0.4-0.4-0.9-0.6-1.5-0.6s-1.1,0.2-1.4,0.6C172.9,123.3,172.7,123.8,172.7,124.3
	 M173.1,119.7c0,0.5,0.2,0.9,0.4,1.2c0.3,0.3,0.7,0.4,1.2,0.4s0.9-0.1,1.2-0.4s0.4-0.7,0.4-1.1s-0.2-0.8-0.5-1.1
	c-0.3-0.3-0.7-0.5-1.2-0.5s-0.9,0.2-1.2,0.4C173.3,119,173.1,119.3,173.1,119.7z M173.4,121.8c-0.5-0.2-0.9-0.5-1.1-0.8
	c-0.2-0.3-0.4-0.8-0.4-1.2c0-0.7,0.3-1.3,0.8-1.8s1.2-0.7,2.1-0.7c0.9,0,1.6,0.3,2.1,0.8s0.8,1.1,0.8,1.8c0,0.5-0.1,0.9-0.4,1.2
	c-0.2,0.3-0.6,0.6-1.1,0.8c0.6,0.2,1.1,0.5,1.4,1c0.3,0.4,0.5,1,0.5,1.6c0,0.8-0.3,1.6-0.9,2.1c-0.6,0.6-1.4,0.9-2.4,0.9
	s-1.8-0.3-2.4-0.9c-0.6-0.6-0.9-1.3-0.9-2.2c0-0.6,0.2-1.2,0.5-1.6C172.3,122.3,172.8,122,173.4,121.8z M168.4,127.2h-1.2v-7.8
	c-0.3,0.3-0.7,0.6-1.2,0.8c-0.5,0.3-0.9,0.5-1.3,0.6v-1.2c0.7-0.3,1.3-0.7,1.8-1.2s0.9-0.9,1.1-1.3h0.8L168.4,127.2L168.4,127.2z
	 M157.3,122.3c0,1.6,0.2,2.7,0.6,3.3c0.4,0.5,0.9,0.8,1.4,0.8s1-0.3,1.4-0.8s0.6-1.6,0.6-3.3c0-1.6-0.2-2.7-0.6-3.3
	c-0.4-0.5-0.9-0.8-1.4-0.8c-0.6,0-1,0.2-1.3,0.7C157.5,119.5,157.3,120.7,157.3,122.3z M156,122.3c0-1.2,0.1-2.1,0.4-2.8
	c0.2-0.7,0.6-1.3,1.1-1.7c0.5-0.4,1.1-0.6,1.8-0.6c0.5,0,1,0.1,1.4,0.3c0.4,0.2,0.7,0.5,1,0.9s0.5,0.9,0.6,1.5
	c0.2,0.6,0.2,1.4,0.2,2.3c0,1.2-0.1,2.1-0.4,2.8c-0.2,0.7-0.6,1.3-1.1,1.7c-0.5,0.4-1.1,0.6-1.8,0.6c-1,0-1.7-0.3-2.3-1
	C156.4,125.5,156,124.2,156,122.3z M154.7,126v1.2h-6.6c0-0.3,0-0.6,0.1-0.8c0.2-0.4,0.4-0.9,0.8-1.3c0.4-0.4,0.9-0.9,1.6-1.5
	c1.1-0.9,1.8-1.6,2.2-2.1s0.6-1,0.6-1.5s-0.2-0.9-0.5-1.2c-0.3-0.3-0.8-0.5-1.4-0.5c-0.6,0-1.1,0.2-1.4,0.5
	c-0.4,0.3-0.5,0.8-0.5,1.5l-1.3-0.1c0.1-0.9,0.4-1.6,1-2.1s1.3-0.7,2.3-0.7s1.7,0.3,2.3,0.8s0.8,1.2,0.8,2c0,0.4-0.1,0.8-0.2,1.2
	c-0.2,0.4-0.4,0.8-0.8,1.2c-0.4,0.4-1,1-1.9,1.8c-0.7,0.6-1.2,1-1.4,1.3c-0.2,0.2-0.4,0.4-0.5,0.7h4.8V126z"/>
<path class="st5" d="M186.9,170.5c1.1,0.9,1.7,2,0.4,3.8l-2.2,2.8l-4.2-3.2l2.2-2.8C184.3,169.5,185.8,169.7,186.9,170.5
	 M181.4,166.9c1.1,0.8,1.2,2.3,0.4,3.3l-2.1,2.8l-3.8-2.9l1.9-2.5C179,166.1,180.3,166,181.4,166.9z M188.2,169.2
	c-1-0.7-2.8-1.5-4.3-0.4l0,0c0.4-1.6-0.6-2.9-1.4-3.4c-1.8-1.4-3.9-1.2-5.6,1.1l-2.9,3.7c-0.2,0.2-0.2,0.4,0,0.5l11.1,8.5
	c0.2,0.2,0.4,0.1,0.6-0.1l3.3-4.2C190.2,173.1,190.1,170.7,188.2,169.2z M176.6,185.9c-1.8,1.5-3.5,1.2-5.1-0.7l-5.9-6.9
	c-0.2-0.3-0.4-0.2-0.5-0.1l-0.7,0.6c-0.2,0.2-0.2,0.3,0,0.5l5.8,6.8c0.6,0.7,1.3,1.3,2,1.7c1.7,1,3.6,0.7,5.5-0.9
	c1.7-1.4,2.5-3.2,1.8-5.3c-0.3-0.8-0.8-1.5-1.4-2.2l-5.8-6.9c-0.2-0.3-0.3-0.2-0.5-0.1l-0.7,0.6c-0.2,0.2-0.3,0.3,0,0.6l5.9,6.9
	C178.6,182.7,178.4,184.5,176.6,185.9z M169.5,192.2c-0.1-0.2-0.3-0.2-0.5-0.1l-5.6,3.6l-6.8-10.8c-0.2-0.3-0.3-0.3-0.5-0.1
	l-0.8,0.5c-0.2,0.1-0.3,0.3-0.1,0.5l7.5,11.8c0.1,0.2,0.3,0.2,0.5,0.1l6.7-4.3c0.2-0.1,0.2-0.3,0.1-0.5L169.5,192.2z M148.5,188.4
	c-4.4,2-3.6,5.8-2,9.3s3.9,6.3,8.2,4.4c0.8-0.4,2.6-1.3,3.4-2.2c0.2-0.2,0.2-0.4,0-0.5l-0.3-0.5c-0.1-0.1-0.2-0.3-0.5-0.1
	c-0.9,0.6-2,1.2-3.2,1.8c-3,1.4-4.6-1-5.8-3.7c-1.3-3-2.2-5.7,1-7.1c1.2-0.5,2.6-1,3.5-1.2c0.3-0.1,0.3-0.2,0.3-0.4l-0.1-0.6
	c0-0.2-0.1-0.3-0.5-0.3C151.1,187.4,149.3,188.1,148.5,188.4z M139.5,206.4c0-0.2-0.2-0.3-0.4-0.3l-6.5,1.2l-2.4-12.5
	c-0.1-0.3-0.2-0.4-0.4-0.3l-1,0.2c-0.2,0-0.4,0.1-0.3,0.5l2.6,13.7c0,0.2,0.2,0.3,0.5,0.3l7.8-1.5c0.2,0,0.3-0.2,0.3-0.4
	L139.5,206.4z M126.5,208.6c0-0.2-0.2-0.4-0.4-0.3l-6.6,0.5l-1-12.7c0-0.3-0.1-0.4-0.4-0.4l-1,0.1c-0.2,0-0.4,0.1-0.3,0.4l1.1,13.9
	c0,0.2,0.2,0.3,0.4,0.3l8-0.6c0.2,0,0.3-0.1,0.3-0.4L126.5,208.6z M110.2,204.6l-4.4-0.3l1.4-3.7l1.3-3.5h0.1l0.8,3.7L110.2,204.6z
	 M105.2,205.8l5.4,0.4l0.8,3.7c0.1,0.2,0.1,0.3,0.4,0.3l1.4,0.1c0.2,0,0.2-0.1,0.2-0.3l-3.6-14.4c0-0.2-0.1-0.3-0.4-0.4l-1.2-0.1
	c-0.2,0-0.4,0.1-0.4,0.3l-5.7,13.6c-0.1,0.2-0.1,0.4,0.1,0.4l1.2,0.1c0.2,0,0.4,0,0.5-0.3L105.2,205.8z M97.5,204.3
	c-0.4,1.3-1.2,2.4-3.4,1.8l-3.4-0.9l1.4-5.1l3.4,0.9C97.4,201.5,97.9,203,97.5,204.3z M98.8,197.8c-0.4,1.3-1.7,2-2.9,1.7l-3.4-0.9
	l1.3-4.6l3,0.8C98.7,195.3,99.2,196.5,98.8,197.8z M99.2,204.9c0.3-1.2,0.3-3.2-1.2-4.1l0,0c1.7-0.3,2.4-1.7,2.7-2.6
	c0.6-2.2-0.4-4-3.1-4.8l-4.5-1.2c-0.3-0.1-0.4,0-0.5,0.2l-3.9,13.4c-0.1,0.3,0,0.4,0.3,0.5l5.2,1.4
	C96.3,208.3,98.5,207.3,99.2,204.9z M90.2,191.7c0.1-0.2,0-0.4-0.2-0.5l-8.4-3.7c-0.2-0.1-0.4-0.1-0.5,0.2l-0.4,0.8
	c-0.1,0.2,0,0.4,0.2,0.5l3.4,1.5l-5.2,11.6c-0.1,0.2,0,0.4,0.2,0.5l0.9,0.4c0.2,0.1,0.4,0,0.5-0.2l5.2-11.6l3.4,1.5
	c0.2,0.1,0.4,0,0.5-0.2L90.2,191.7z M74.2,192c-2,3.2-3.9,4.6-6.6,2.9c-2.6-1.7-2-4.1,0-7.1c2-3.1,4-4.6,6.5-3
	C76.7,186.5,76.3,188.8,74.2,192z M75.8,192.8c1.9-3,3.4-6.5-0.9-9.3c-4.3-2.7-7.2,0.8-8.7,3.1c-1.9,3-3.8,6.8,0.6,9.6
	C71.2,199.1,73.9,195.7,75.8,192.8z M61.7,183.4c-2.6,2.7-4.8,3.7-7.1,1.5c-2.2-2.2-1.1-4.4,1.4-7c2.6-2.7,4.8-3.7,7-1.7
	C65.2,178.4,64.4,180.6,61.7,183.4z M63.1,184.4c2.5-2.6,4.6-5.8,0.9-9.3s-7.2-0.6-9.2,1.4c-2.4,2.5-5.1,5.9-1.3,9.5
	C57.3,189.6,60.7,186.9,63.1,184.4z M41.8,172c-0.2,0.2-0.2,0.3,0,0.5l0.6,0.7c0.2,0.2,0.3,0.2,0.5,0.1l5-4.1l3.4,4.2
	c0.2,0.2,0.4,0.2,0.5,0.1l0.7-0.5c0.2-0.2,0.2-0.3,0-0.5l-3.4-4.3l3.6-2.9l3.9,4.8c0.2,0.2,0.4,0.2,0.5,0.1l0.7-0.5
	c0.2-0.2,0.2-0.3,0-0.5l-4.7-5.8c-0.2-0.2-0.3-0.3-0.5-0.1L41.8,172z"/>
<path class="st5" d="M187.1,69.7c-2.7-3.9-6.4-2.4-9.5-0.2c-3.7,2.6-5.1,5.5-2.6,9.1c0.7,1,1.7,2.1,2.7,2.8c0.4,0.3,0.6,0.3,1,0
	l5.2-3.7c0.1-0.1,0.3-0.3,0.1-0.6l-2-2.8c-0.1-0.2-0.3-0.2-0.5-0.1l-0.7,0.5c-0.2,0.1-0.2,0.3-0.1,0.5l1.2,1.6l-3.7,2.6
	c-0.6-0.4-1.5-1.5-1.9-2.1c-1.9-2.7,0-4.8,2.4-6.6c2.7-1.9,5.2-3.1,7.1-0.4c0.8,1.1,1.4,2.3,1.9,3.2c0.1,0.3,0.3,0.3,0.4,0.2
	l0.6-0.2c0.2-0.1,0.3-0.2,0.2-0.5C188.7,72,187.6,70.4,187.1,69.7 M170.5,59.3l-2,10.7c-0.1,0.3-0.1,0.4,0.2,0.7l0.6,0.6
	c0.2,0.2,0.3,0.2,0.5,0l9.6-10.1c0.2-0.2,0.2-0.4,0-0.5l-0.7-0.6c-0.2-0.2-0.3-0.2-0.5,0l-7.7,8l0,0l0.4-2.2L173,55
	c0-0.3,0.1-0.4-0.2-0.6l-0.7-0.6c-0.2-0.2-0.3-0.2-0.5,0l-9.7,10.1c-0.2,0.2-0.2,0.4,0,0.5l0.7,0.6c0.2,0.2,0.4,0.2,0.5,0l7.8-8.1
	l0,0L170.5,59.3z M166.9,50.5c0.2-0.3,0.1-0.4-0.1-0.5l-0.8-0.6c-0.2-0.2-0.4-0.2-0.6,0.1l-8.1,11.4c-0.1,0.2-0.1,0.4,0.1,0.5
	l0.8,0.6c0.2,0.1,0.4,0.1,0.5-0.1L166.9,50.5z M162,46.9c0.1-0.2,0-0.4-0.2-0.5l-8.2-4.2c-0.2-0.1-0.4-0.1-0.5,0.1l-0.4,0.8
	c-0.1,0.2-0.1,0.4,0.2,0.5l3.3,1.7l-5.8,11.3c-0.1,0.2-0.1,0.4,0.2,0.5l0.8,0.4c0.2,0.1,0.4,0,0.5-0.2l5.8-11.3l3.3,1.7
	c0.2,0.1,0.4,0.1,0.5-0.2L162,46.9z M147.1,43.8c-0.8,2.3-2.5,2.2-3.7,1.7l-2.6-0.9l1.7-5.1l2.6,0.9C146.6,41,147.8,41.9,147.1,43.8
	z M144.8,47.4c2.1,0,3.4-1.4,4-3c1-2.8-0.6-4.6-2.7-5.3l-4.3-1.5c-0.2-0.1-0.4,0-0.5,0.2L136.8,51c-0.1,0.2,0,0.4,0.2,0.5l0.9,0.3
	c0.2,0.1,0.4,0,0.5-0.3l1.9-5.5l2.8,0.9l0.8,6.5c0,0.3,0.1,0.4,0.4,0.4l1.2,0.4c0.2,0.1,0.3-0.1,0.3-0.3L144.8,47.4z M133.5,43.1
	c-0.7,3.7-1.9,5.8-5,5.2c-3.1-0.5-3.4-3-2.7-6.6c0.7-3.6,2-5.8,4.9-5.3C133.7,37,134.2,39.3,133.5,43.1z M135.3,43.2
	c0.6-3.5,0.6-7.3-4.4-8.2c-5-0.9-6.4,3.5-6.9,6.2c-0.6,3.5-0.9,7.7,4.2,8.6C133.4,50.8,134.7,46.6,135.3,43.2z M118.7,38.2
	c0,1.5-0.5,2.9-2.8,3l-2.9,0.1l-0.1-5.6l2.7-0.1C117.4,35.5,118.6,36.3,118.7,38.2z M120.4,38.1c-0.1-2.9-2.1-4.2-4.7-4.2l-4.2,0.1
	c-0.3,0-0.4,0.1-0.4,0.4l0.4,14c0,0.2,0.1,0.4,0.4,0.4h1c0.2,0,0.4-0.1,0.4-0.4l-0.1-5.6l2.9-0.1C119.5,42.6,120.5,40.2,120.4,38.1z
	 M108.1,44.9c-0.6-3.3-2.7-3.4-5.3-3.4c-2.3,0-3.2-0.1-3.5-1.8c-0.3-1.5,0.2-2.6,2.5-3c1.3-0.2,2.7-0.3,3.7-0.3
	c0.3,0,0.3-0.2,0.4-0.3v-0.6c0-0.2,0-0.4-0.4-0.4c-1.2-0.3-3.2,0-4,0.1c-3,0.5-4.4,2.3-3.9,4.9c0.5,2.9,2.7,3.1,5.4,3
	c2.4,0,3.2,0.3,3.6,2.3c0.3,1.5-0.7,2.5-2.9,2.9c-0.9,0.2-2.7,0.3-3.9,0.4c-0.2,0-0.3,0.1-0.3,0.3v0.6c0,0.2,0,0.3,0.4,0.4
	c1,0.2,3.1,0.1,4.3-0.1C106.6,49.5,108.7,48,108.1,44.9z M85.8,53.9c-2.1,1-3.7,0.2-4.8-2.1l-3.7-8.3c-0.1-0.3-0.3-0.3-0.5-0.2
	l-0.9,0.4c-0.2,0.1-0.3,0.2-0.2,0.5l3.7,8.2c0.4,0.9,0.8,1.6,1.5,2.2c1.4,1.4,3.3,1.6,5.5,0.6c2-0.9,3.3-2.4,3.2-4.6
	c0-0.9-0.3-1.7-0.7-2.5l-3.7-8.2c-0.1-0.3-0.3-0.3-0.5-0.2l-0.9,0.4c-0.1,0.1-0.2,0.2-0.1,0.6l3.7,8.3
	C88.6,51.3,87.9,52.9,85.8,53.9z M70.9,54.1l0.5-7.6c0-0.2-0.1-0.3-0.3-0.2L70,47.1c-0.2,0.2-0.3,0.3-0.3,0.5l-0.5,7.3l-0.1,2.8H69
	l-4.5-6.3c-0.2-0.3-0.3-0.3-0.5-0.1l-0.8,0.6c-0.2,0.2-0.3,0.3-0.1,0.6l8.1,11.4c0.1,0.2,0.3,0.2,0.5,0.1l0.8-0.6
	c0.2-0.1,0.2-0.3,0.1-0.5l-2.1-3l0.3-3.9l7.2,3.2c0.3,0.1,0.4,0.1,0.6,0l1.1-0.8c0.2-0.1,0.1-0.3,0-0.4L70.9,54.1z M63.6,63.7
	l-3.2,3l-1.8-3.5l-1.7-3.3l0,0l3.3,1.9L63.6,63.7z M61.1,68.2l3.9-3.7l3.3,1.9c0.2,0.1,0.3,0.1,0.5-0.1l1-0.9
	c0.1-0.1,0.1-0.2-0.1-0.3l-13.1-7c-0.2-0.1-0.3-0.2-0.5,0L55.2,59c-0.2,0.2-0.2,0.3-0.1,0.5l6.3,13.3c0.1,0.2,0.2,0.3,0.4,0.1
	l0.8-0.8c0.2-0.2,0.2-0.3,0.1-0.6L61.1,68.2z M56.3,73.2c1.1,0.8,1.8,2,0.5,3.8l-2.1,2.9l-4.3-3.1l2.1-2.9
	C53.7,72.3,55.2,72.4,56.3,73.2z M50.7,69.7c1.1,0.8,1.3,2.2,0.6,3.3l-2,2.8L45.4,73l1.8-2.6C48.3,69,49.6,68.9,50.7,69.7z
	 M57.5,71.8c-1-0.7-2.9-1.4-4.3-0.2l0,0c0.3-1.7-0.7-2.8-1.5-3.4c-1.8-1.3-3.9-1-5.6,1.3l-2.7,3.8c-0.2,0.2-0.1,0.4,0.1,0.5
	l11.4,8.1c0.2,0.2,0.4,0.1,0.6-0.2l3.1-4.4C59.8,75.6,59.5,73.2,57.5,71.8z"/>
<g>
	<defs>
		<rect id="SVGID_1_" x="-617.6" y="-165" width="313" height="313"/>
	</defs>
	<clipPath id="SVGID_2_">
		<use xlink:href="#SVGID_1_"  style="overflow:visible;"/>
	</clipPath>
	<g class="st6">
		<defs>
			<rect id="SVGID_3_" x="-617.6" y="-165" width="313" height="313"/>
		</defs>
		<clipPath id="SVGID_4_">
			<use xlink:href="#SVGID_3_"  style="overflow:visible;"/>
		</clipPath>
	</g>
</g>
<g>
	<defs>
		<rect id="SVGID_5_" x="-617.6" y="-165" width="313" height="313"/>
	</defs>
	<clipPath id="SVGID_6_">
		<use xlink:href="#SVGID_5_"  style="overflow:visible;"/>
	</clipPath>
	<g style="clip-path:url(#SVGID_6_);">
		<text transform="matrix(1 0 0 1 -304.5513 147.955)" style="font-family:'TimesNewRomanPSMT'; font-size:10px;"> </text>
	</g>
</g>
</svg>
