<?xml version="1.0" encoding="utf-8"?>
<!-- Generator: Adobe Illustrator 21.0.0, SVG Export Plug-In . SVG Version: 6.00 Build 0)  -->
<svg version="1.1" id="Слой_1" xmlns="http://www.w3.org/2000/svg" xmlns:xlink="http://www.w3.org/1999/xlink" x="0px" y="0px"
	 viewBox="0 0 841.9 595.3" style="enable-background:new 0 0 841.9 595.3;" xml:space="preserve">
<style type="text/css">
	.st0{fill-rule:evenodd;clip-rule:evenodd;fill:#00A659;}
	.st1{fill-rule:evenodd;clip-rule:evenodd;fill:#DC2A1B;}
	.st2{fill-rule:evenodd;clip-rule:evenodd;fill:#0096CD;}
	.st3{fill-rule:evenodd;clip-rule:evenodd;fill:#FFFFFF;}
	.st4{fill:#FFFFFF;}
	.st5{font-family:'PFSquareSansPro-Bold';}
	.st6{font-size:46.697px;}
	.st7{fill-rule:evenodd;clip-rule:evenodd;}
</style>
<text transform="matrix(1 0 0 1 243.6792 392.9973)" class="st5 st6">BAKU SPORTING</text>
<text transform="matrix(1 0 0 1 243.6792 434.2111)" class="st5 st6">F</text>
<text transform="matrix(1 0 0 1 267.7275 434.2111)" class="st5 st6">OO</text>
<text transform="matrix(1 0 0 1 331.1416 434.2111)" class="st5 st6">TBALL CLUB</text>
<path class="st0" d="M475.6,203c-22.1,10.9-32.6,19.5-39.3,29.3c-7,12.6,13,13.7,8.7,28.7c-1.9,11.6-35.1,25.1-49.1,29.4
	c22.1-10.9,32.6-19.5,39.3-29.3c7-12.6-13-13.7-8.7-28.7C428.5,220.8,461.6,207.3,475.6,203"/>
<path class="st1" d="M429.9,215.4c-0.4-6.2-9.1-8.3-21.3-3.9c-7.6,2.7-16.3,6.5-24.1,9.3c25.5-6.4,41-5.1,32.6,3.8
	c-12.8,13.6-6.7,18.1-1.4,22.9c8.2,7.6,4.3,12.7-2,19.5c-6.8,7.4-17,14.5-34.3,23c13.1-4.1,50.5-17,49.7-34.1
	c-0.4-8-8.8-10.8-10.5-17C416,229.9,430.5,225.3,429.9,215.4"/>
<path class="st2" d="M391.1,209.1c3.6,0.8,6.2-4.7,10.7-3.9c0.7,26.6-7.3,61.8-22.5,84.7C391,259.7,394.4,236.2,391.1,209.1"/>
<path class="st1" d="M389.6,189.2c2,5.6,6.3,10.9,4.5,17.2c-16.2-5.8,0.3-16.5-18.9-27.9c13.5,1.6,16.9,5.5,18.6,9.1
	c-0.5-7.4-6.5-8.2-7.4-8.8c11.8-1.5,24.3,13.8,14.3,23.8c1.3-2.9,1.7-8.8,0.6-10.7c0.2,2.9-1.1,10.2-3.7,11.6
	C397.9,196.9,390.7,192.4,389.6,189.2"/>
<path class="st7" d="M391.8,138.1c52.1-13.5,105.4,17.8,118.9,70c13.5,52.1-17.8,105.4-70,118.9c-52.1,13.5-105.4-17.8-118.9-70
	C308.4,204.8,339.7,151.6,391.8,138.1z M392.4,140.2c-51,13.2-81.6,65.2-68.4,116.2c13.2,51,65.2,81.6,116.2,68.4
	c51-13.2,81.6-65.2,68.4-116.2C495.4,157.7,443.4,127,392.4,140.2z M393.4,144.3c48.7-12.6,98.4,16.7,111,65.4
	c12.6,48.7-16.7,98.4-65.4,111c-48.7,12.6-98.4-16.7-111-65.4C315.4,206.6,344.7,156.9,393.4,144.3z M398.4,163.7
	c-38,9.8-60.9,48.7-51,86.7c9.8,38,48.7,60.9,86.7,51c38-9.8,60.9-48.7,51-86.7C475.3,176.7,436.5,153.8,398.4,163.7z M399,165.9
	c36.8-9.5,74.3,12.6,83.9,49.4c9.5,36.8-12.6,74.3-49.4,83.9c-36.8,9.5-74.3-12.6-83.9-49.4C340.1,213,362.2,175.4,399,165.9z
	 M391.2,135.7c53.5-13.8,108.1,18.3,121.9,71.8c13.8,53.5-18.3,108.1-71.8,121.9c-53.5,13.8-108.1-18.3-121.9-71.8
	C305.6,204.1,337.7,149.5,391.2,135.7z"/>
<polygon class="st7" points="507.6,232.5 499.7,235 499.8,243 494.9,236.5 487,239 491.9,232.5 487,226.1 494.9,228.6 499.8,222.1 
	499.7,230.1 "/>
<polygon class="st7" points="501.9,264 493.7,263.6 490.9,271.1 488.6,263.3 480.4,262.9 487.2,258.6 484.8,250.8 491.4,255.9 
	498.2,251.5 495.4,259 "/>
<polygon class="st7" points="502.1,201.1 495.6,206.1 498.3,213.6 491.5,209.2 485,214.2 487.4,206.4 480.6,202.1 488.8,201.7 
	491.2,193.9 493.9,201.5 "/>
<polygon class="st7" points="325,232.5 332.9,235 332.9,243 337.7,236.5 345.6,239 340.7,232.5 345.6,226.1 337.7,228.6 
	332.9,222.1 332.9,230.1 "/>
<polygon class="st7" points="330.7,264 338.9,263.6 341.7,271.1 344,263.3 352.3,262.9 345.5,258.6 347.8,250.8 341.3,255.9 
	334.5,251.5 337.2,259 "/>
<polygon class="st7" points="330.5,201.1 337.1,206.1 334.3,213.6 341.1,209.2 347.7,214.2 345.3,206.4 352.1,202.1 343.8,201.7 
	341.5,193.9 338.7,201.5 "/>
<path d="M472.6,234.6c0,0.3,0.1,0.7,0.2,1c0.2,0.3,0.4,0.6,0.7,0.8c0.3,0.2,0.7,0.3,1.1,0.3c0.6,0,1.1-0.2,1.4-0.6
	c0.4-0.4,0.6-0.9,0.6-1.4c0-0.6-0.2-1.1-0.6-1.5c-0.4-0.4-0.9-0.6-1.5-0.6c-0.6,0-1.1,0.2-1.4,0.6
	C472.8,233.5,472.6,234,472.6,234.6 M473,230c0,0.5,0.2,0.9,0.4,1.2c0.3,0.3,0.7,0.4,1.2,0.4c0.5,0,0.9-0.1,1.2-0.4
	c0.3-0.3,0.4-0.7,0.4-1.1c0-0.4-0.2-0.8-0.5-1.1c-0.3-0.3-0.7-0.5-1.2-0.5c-0.5,0-0.9,0.2-1.2,0.4C473.1,229.2,473,229.6,473,230z
	 M473.2,232c-0.5-0.2-0.9-0.5-1.1-0.8c-0.2-0.3-0.4-0.8-0.4-1.2c0-0.7,0.3-1.3,0.8-1.8c0.5-0.5,1.2-0.7,2.1-0.7
	c0.9,0,1.6,0.3,2.1,0.8c0.5,0.5,0.8,1.1,0.8,1.8c0,0.5-0.1,0.9-0.4,1.2c-0.2,0.3-0.6,0.6-1.1,0.8c0.6,0.2,1.1,0.5,1.4,1
	c0.3,0.4,0.5,1,0.5,1.6c0,0.8-0.3,1.6-0.9,2.1c-0.6,0.6-1.4,0.9-2.4,0.9s-1.8-0.3-2.4-0.9c-0.6-0.6-0.9-1.3-0.9-2.2
	c0-0.6,0.2-1.2,0.5-1.6C472.1,232.5,472.6,232.2,473.2,232z M468.2,237.4H467v-7.8c-0.3,0.3-0.7,0.6-1.2,0.8
	c-0.5,0.3-0.9,0.5-1.3,0.6v-1.2c0.7-0.3,1.3-0.7,1.8-1.2c0.5-0.5,0.9-0.9,1.1-1.3h0.8V237.4z M457.1,232.5c0,1.6,0.2,2.7,0.6,3.3
	c0.4,0.5,0.9,0.8,1.4,0.8s1-0.3,1.4-0.8c0.4-0.5,0.6-1.6,0.6-3.3c0-1.6-0.2-2.7-0.6-3.3c-0.4-0.5-0.9-0.8-1.4-0.8
	c-0.6,0-1,0.2-1.3,0.7C457.3,229.8,457.1,230.9,457.1,232.5z M455.9,232.5c0-1.2,0.1-2.1,0.4-2.8c0.2-0.7,0.6-1.3,1.1-1.7
	c0.5-0.4,1.1-0.6,1.8-0.6c0.5,0,1,0.1,1.4,0.3c0.4,0.2,0.7,0.5,1,0.9c0.3,0.4,0.5,0.9,0.6,1.5c0.2,0.6,0.2,1.4,0.2,2.3
	c0,1.2-0.1,2.1-0.4,2.8c-0.2,0.7-0.6,1.3-1.1,1.7c-0.5,0.4-1.1,0.6-1.8,0.6c-1,0-1.7-0.3-2.3-1C456.2,235.7,455.9,234.4,455.9,232.5
	z M454.6,236.3v1.2H448c0-0.3,0-0.6,0.1-0.8c0.2-0.4,0.4-0.9,0.8-1.3c0.4-0.4,0.9-0.9,1.6-1.5c1.1-0.9,1.8-1.6,2.2-2.1
	c0.4-0.5,0.6-1,0.6-1.5c0-0.5-0.2-0.9-0.5-1.2c-0.3-0.3-0.8-0.5-1.4-0.5c-0.6,0-1.1,0.2-1.4,0.5c-0.4,0.3-0.5,0.8-0.5,1.5l-1.3-0.1
	c0.1-0.9,0.4-1.6,1-2.1c0.6-0.5,1.3-0.7,2.3-0.7c1,0,1.7,0.3,2.3,0.8c0.6,0.5,0.8,1.2,0.8,2c0,0.4-0.1,0.8-0.2,1.2
	c-0.2,0.4-0.4,0.8-0.8,1.2c-0.4,0.4-1,1-1.9,1.8c-0.7,0.6-1.2,1-1.4,1.3c-0.2,0.2-0.4,0.4-0.5,0.7H454.6z"/>
<path d="M486.8,280.8c1.1,0.9,1.7,2,0.4,3.8l-2.2,2.8l-4.2-3.2l2.2-2.8C484.2,279.8,485.7,279.9,486.8,280.8 M481.3,277.1
	c1.1,0.8,1.2,2.3,0.4,3.3l-2.1,2.8l-3.8-2.9l1.9-2.5C478.9,276.3,480.2,276.3,481.3,277.1z M488,279.4c-1-0.7-2.8-1.5-4.3-0.4l0,0
	c0.4-1.6-0.6-2.9-1.4-3.4c-1.8-1.4-3.9-1.2-5.6,1.1l-2.9,3.7c-0.2,0.2-0.2,0.4,0,0.5l11.1,8.5c0.2,0.2,0.4,0.1,0.6-0.1l3.3-4.2
	C490.1,283.3,489.9,280.9,488,279.4z M476.5,296.2c-1.8,1.5-3.5,1.2-5.1-0.7l-5.9-6.9c-0.2-0.3-0.4-0.2-0.5-0.1l-0.7,0.6
	c-0.2,0.2-0.2,0.3,0,0.5l5.8,6.8c0.6,0.7,1.3,1.3,2,1.7c1.7,1,3.6,0.7,5.5-0.9c1.7-1.4,2.5-3.2,1.8-5.3c-0.3-0.8-0.8-1.5-1.4-2.2
	l-5.8-6.9c-0.2-0.3-0.3-0.2-0.5-0.1l-0.7,0.6c-0.2,0.2-0.3,0.3,0,0.6l5.9,6.9C478.4,293,478.2,294.7,476.5,296.2z M469.3,302.4
	c-0.1-0.2-0.3-0.2-0.5-0.1l-5.6,3.6l-6.8-10.8c-0.2-0.3-0.3-0.3-0.5-0.1l-0.8,0.5c-0.2,0.1-0.3,0.3-0.1,0.5l7.5,11.8
	c0.1,0.2,0.3,0.2,0.5,0.1l6.7-4.3c0.2-0.1,0.2-0.3,0.1-0.5L469.3,302.4z M448.4,298.7c-4.4,2-3.6,5.8-2,9.3c1.6,3.5,3.9,6.3,8.2,4.4
	c0.8-0.4,2.6-1.3,3.4-2.2c0.2-0.2,0.2-0.4,0-0.5l-0.3-0.5c-0.1-0.1-0.2-0.3-0.5-0.1c-0.9,0.6-2,1.2-3.2,1.8c-3,1.4-4.6-1-5.8-3.7
	c-1.3-3-2.2-5.7,1-7.1c1.2-0.5,2.6-1,3.5-1.2c0.3-0.1,0.3-0.2,0.3-0.4l-0.1-0.6c0-0.2-0.1-0.3-0.5-0.3
	C451,297.6,449.2,298.3,448.4,298.7z M439.3,316.6c0-0.2-0.2-0.3-0.4-0.3l-6.5,1.2l-2.4-12.5c-0.1-0.3-0.2-0.4-0.4-0.3l-1,0.2
	c-0.2,0-0.4,0.1-0.3,0.5l2.6,13.7c0,0.2,0.2,0.3,0.5,0.3l7.8-1.5c0.2,0,0.3-0.2,0.3-0.4L439.3,316.6z M426.4,318.9
	c0-0.2-0.2-0.4-0.4-0.3l-6.6,0.5l-1-12.7c0-0.3-0.1-0.4-0.4-0.4l-1,0.1c-0.2,0-0.4,0.1-0.3,0.4l1.1,13.9c0,0.2,0.2,0.3,0.4,0.3
	l8-0.6c0.2,0,0.3-0.1,0.3-0.4L426.4,318.9z M410,314.9l-4.4-0.3l1.4-3.7l1.3-3.5l0.1,0l0.8,3.7L410,314.9z M405,316.1l5.4,0.4
	l0.8,3.7c0.1,0.2,0.1,0.3,0.4,0.3l1.4,0.1c0.2,0,0.2-0.1,0.2-0.3l-3.6-14.4c0-0.2-0.1-0.3-0.4-0.4l-1.2-0.1c-0.2,0-0.4,0.1-0.4,0.3
	l-5.7,13.6c-0.1,0.2-0.1,0.4,0.1,0.4l1.2,0.1c0.2,0,0.4,0,0.5-0.3L405,316.1z M397.3,314.5c-0.4,1.3-1.2,2.4-3.4,1.8l-3.4-0.9
	l1.4-5.1l3.4,0.9C397.3,311.7,397.7,313.2,397.3,314.5z M398.6,308c-0.4,1.3-1.7,2-2.9,1.7l-3.4-0.9l1.3-4.6l3,0.8
	C398.5,305.5,399,306.7,398.6,308z M399,315.1c0.3-1.2,0.3-3.2-1.2-4.1l0,0c1.7-0.3,2.4-1.7,2.7-2.6c0.6-2.2-0.4-4-3.1-4.8l-4.5-1.2
	c-0.3-0.1-0.4,0-0.5,0.2l-3.7,13.5c-0.1,0.3,0,0.4,0.3,0.5l5.2,1.4C396.2,318.5,398.4,317.5,399,315.1z M390,302
	c0.1-0.2,0-0.4-0.2-0.5l-8.4-3.7c-0.2-0.1-0.4-0.1-0.5,0.2l-0.4,0.8c-0.1,0.2,0,0.4,0.2,0.5l3.4,1.5l-5.2,11.6
	c-0.1,0.2,0,0.4,0.2,0.5l0.9,0.4c0.2,0.1,0.4,0,0.5-0.2l5.2-11.6l3.4,1.5c0.2,0.1,0.4,0,0.5-0.2L390,302z M374.1,302.3
	c-2,3.2-3.9,4.6-6.6,2.9c-2.6-1.7-2-4.1,0-7.1c2-3.1,4-4.6,6.5-3C376.6,296.7,376.2,299,374.1,302.3z M375.7,303
	c1.9-3,3.4-6.5-0.9-9.3c-4.3-2.7-7.2,0.8-8.7,3.1c-1.9,3-3.8,6.8,0.6,9.6C371.1,309.3,373.8,305.9,375.7,303z M361.5,293.6
	c-2.6,2.7-4.8,3.7-7.1,1.5c-2.2-2.2-1.1-4.4,1.4-7c2.6-2.7,4.8-3.7,7-1.7C365,288.6,364.2,290.8,361.5,293.6z M362.9,294.6
	c2.5-2.6,4.6-5.8,0.9-9.3c-3.7-3.5-7.2-0.6-9.2,1.4c-2.4,2.5-5.1,5.9-1.3,9.5C357.2,299.9,360.5,297.1,362.9,294.6z M341.6,282.2
	c-0.2,0.2-0.2,0.3,0,0.5l0.6,0.7c0.2,0.2,0.3,0.2,0.5,0.1l5-4.1l3.4,4.2c0.2,0.2,0.4,0.2,0.5,0.1l0.7-0.5c0.2-0.2,0.2-0.3,0-0.5
	l-3.4-4.3l3.6-2.9l3.9,4.8c0.2,0.2,0.4,0.2,0.5,0.1l0.7-0.5c0.2-0.2,0.2-0.3,0-0.5l-4.7-5.8c-0.2-0.2-0.3-0.3-0.5-0.1L341.6,282.2z"
	/>
<path d="M486.9,179.9c-2.7-3.9-6.4-2.4-9.5-0.2c-3.7,2.6-5.1,5.5-2.6,9.1c0.7,1,1.7,2.1,2.7,2.8c0.4,0.3,0.6,0.3,1,0l5.2-3.7
	c0.1-0.1,0.3-0.3,0.1-0.6l-2-2.8c-0.1-0.2-0.3-0.2-0.5-0.1l-0.7,0.5c-0.2,0.1-0.2,0.3-0.1,0.5l1.2,1.6l-3.7,2.6
	c-0.6-0.4-1.5-1.5-1.9-2.1c-1.9-2.7,0-4.8,2.4-6.6c2.7-1.9,5.2-3.1,7.1-0.4c0.8,1.1,1.4,2.3,1.9,3.2c0.1,0.3,0.3,0.3,0.4,0.2
	l0.6-0.2c0.2-0.1,0.3-0.2,0.2-0.5C488.5,182.2,487.4,180.6,486.9,179.9 M470.3,169.6l-2,10.7c-0.1,0.3-0.1,0.4,0.2,0.7l0.6,0.6
	c0.2,0.2,0.3,0.2,0.5,0l9.6-10.1c0.2-0.2,0.2-0.4,0-0.5l-0.7-0.6c-0.2-0.2-0.3-0.2-0.5,0l-7.7,8l0,0l0.4-2.2l2.1-10.9
	c0-0.3,0.1-0.4-0.2-0.6l-0.7-0.6c-0.2-0.2-0.3-0.2-0.5,0l-9.7,10.1c-0.2,0.2-0.2,0.4,0,0.5l0.7,0.6c0.2,0.2,0.4,0.2,0.5,0l7.8-8.1
	l0,0L470.3,169.6z M466.8,160.8c0.2-0.3,0.1-0.4-0.1-0.5l-0.8-0.6c-0.2-0.2-0.4-0.2-0.6,0.1l-8.1,11.4c-0.1,0.2-0.1,0.4,0.1,0.5
	l0.8,0.6c0.2,0.1,0.4,0.1,0.5-0.1L466.8,160.8z M461.8,157.1c0.1-0.2,0-0.4-0.2-0.5l-8.2-4.2c-0.2-0.1-0.4-0.1-0.5,0.1l-0.4,0.8
	c-0.1,0.2-0.1,0.4,0.2,0.5l3.3,1.7l-5.8,11.3c-0.1,0.2-0.1,0.4,0.2,0.5l0.8,0.4c0.2,0.1,0.4,0,0.5-0.2l5.8-11.3l3.3,1.7
	c0.2,0.1,0.4,0.1,0.5-0.2L461.8,157.1z M446.9,154.1c-0.8,2.3-2.5,2.2-3.7,1.7l-2.6-0.9l1.7-5.1l2.6,0.9
	C446.4,151.2,447.6,152.1,446.9,154.1z M444.6,157.7c2.1,0,3.4-1.4,4-3c1-2.8-0.6-4.6-2.7-5.3l-4.3-1.5c-0.2-0.1-0.4,0-0.5,0.2
	l-4.5,13.2c-0.1,0.2,0,0.4,0.2,0.5l0.9,0.3c0.2,0.1,0.4,0,0.5-0.3l1.9-5.5l2.8,0.9l0.8,6.5c0,0.3,0.1,0.4,0.4,0.4l1.2,0.4
	c0.2,0.1,0.3-0.1,0.3-0.3L444.6,157.7z M433.4,153.4c-0.7,3.7-1.9,5.8-5,5.2c-3.1-0.5-3.4-3-2.7-6.6c0.7-3.6,2-5.8,4.9-5.3
	C433.5,147.3,434,149.6,433.4,153.4z M435.1,153.4c0.6-3.5,0.6-7.3-4.4-8.2c-5-0.9-6.4,3.5-6.9,6.2c-0.6,3.5-0.9,7.7,4.2,8.6
	C433.3,161,434.5,156.9,435.1,153.4z M418.5,148.4c0,1.5-0.5,2.9-2.8,3l-2.9,0.1l-0.1-5.6l2.7-0.1
	C417.3,145.7,418.5,146.6,418.5,148.4z M420.2,148.4c-0.1-2.9-2.1-4.2-4.7-4.2l-4.2,0.1c-0.3,0-0.4,0.1-0.4,0.4l0.4,14
	c0,0.2,0.1,0.4,0.4,0.4l1,0c0.2,0,0.4-0.1,0.4-0.4l-0.1-5.6l2.9-0.1C419.3,152.8,420.3,150.4,420.2,148.4z M408,155.1
	c-0.6-3.3-2.7-3.4-5.3-3.4c-2.3,0-3.2-0.1-3.5-1.8c-0.3-1.5,0.2-2.6,2.5-3c1.3-0.2,2.7-0.3,3.7-0.3c0.3,0,0.3-0.2,0.4-0.3l0-0.6
	c0-0.2,0-0.4-0.4-0.4c-1.2-0.3-3.2,0-4,0.1c-3,0.5-4.4,2.3-3.9,4.9c0.5,2.9,2.7,3.1,5.4,3c2.4,0,3.2,0.3,3.6,2.3
	c0.3,1.5-0.7,2.5-2.9,2.9c-0.9,0.2-2.7,0.3-3.9,0.4c-0.2,0-0.3,0.1-0.3,0.3l0,0.6c0,0.2,0,0.3,0.4,0.4c1,0.2,3.1,0.1,4.3-0.1
	C406.4,159.7,408.5,158.2,408,155.1z M385.7,164.1c-2.1,1-3.7,0.2-4.8-2.1l-3.7-8.3c-0.1-0.3-0.3-0.3-0.5-0.2l-0.9,0.4
	c-0.2,0.1-0.3,0.2-0.2,0.5l3.7,8.2c0.4,0.9,0.8,1.6,1.5,2.2c1.4,1.4,3.3,1.6,5.5,0.6c2-0.9,3.3-2.4,3.2-4.6c0-0.9-0.3-1.7-0.7-2.5
	l-3.7-8.2c-0.1-0.3-0.3-0.3-0.5-0.2l-0.9,0.4c-0.2,0.1-0.3,0.2-0.2,0.5l3.7,8.3C388.4,161.5,387.7,163.1,385.7,164.1z M370.8,164.3
	l0.5-7.6c0-0.2-0.1-0.3-0.3-0.2l-1.1,0.8c-0.2,0.2-0.3,0.3-0.3,0.5l-0.5,7.3L369,168l-0.1,0l-4.5-6.3c-0.2-0.3-0.3-0.3-0.5-0.1
	l-0.8,0.6c-0.2,0.2-0.3,0.3-0.1,0.6l8.1,11.4c0.1,0.2,0.3,0.2,0.5,0.1l0.8-0.6c0.2-0.1,0.2-0.3,0.1-0.5l-2.1-3l0.3-3.9l7.2,3.2
	c0.3,0.1,0.4,0.1,0.6,0l1.1-0.8c0.2-0.1,0.1-0.3,0-0.4L370.8,164.3z M363.4,173.9l-3.2,3l-1.8-3.5l-1.7-3.3l0,0l3.3,1.9L363.4,173.9
	z M360.9,178.5l3.9-3.7l3.3,1.9c0.2,0.1,0.3,0.1,0.5-0.1l1-0.9c0.1-0.1,0.1-0.2-0.1-0.3l-13.1-7c-0.2-0.1-0.3-0.2-0.5,0l-0.9,0.9
	c-0.2,0.2-0.2,0.3-0.1,0.5l6.3,13.3c0.1,0.2,0.2,0.3,0.4,0.1l0.8-0.8c0.2-0.2,0.2-0.3,0.1-0.6L360.9,178.5z M356.2,183.4
	c1.1,0.8,1.8,2,0.5,3.8l-2.1,2.9l-4.3-3.1l2.1-2.9C353.5,182.5,355.1,182.6,356.2,183.4z M350.5,179.9c1.1,0.8,1.3,2.2,0.6,3.3
	l-2,2.8l-3.9-2.8l1.8-2.6C348.1,179.2,349.4,179.1,350.5,179.9z M357.4,182c-1-0.7-2.9-1.4-4.3-0.2l0,0c0.3-1.7-0.7-2.8-1.5-3.4
	c-1.8-1.3-3.9-1-5.6,1.3l-2.7,3.8c-0.2,0.2-0.1,0.4,0.1,0.5l11.4,8.1c0.2,0.2,0.4,0.1,0.6-0.2l3.1-4.4
	C359.6,185.8,359.4,183.4,357.4,182z"/>
</svg>
